<?xml version="1.0" encoding="utf-8"?>
<!-- Generator: Adobe Illustrator 26.0.0, SVG Export Plug-In . SVG Version: 6.00 Build 0)  -->
<svg version="1.1" id="Capa_1" xmlns="http://www.w3.org/2000/svg" xmlns:xlink="http://www.w3.org/1999/xlink" x="0px" y="0px"
	 viewBox="0 0 60 60" style="enable-background:new 0 0 60 60;" xml:space="preserve">
<style type="text/css">
	.st0{fill:#0096D6;}
</style>
<path class="st0" d="M41,12.1c-0.3,0.1-3.5,3.6-3.5,3.8c0,0.1,0,0.3,0.1,0.5c0.2,0.4,3.8,4.2,4.1,4.2c0.3,0.1,0.6-0.1,1.2-0.7
	l0.5-0.5l0.2,0.3l0.2,0.3L43,20.7c-0.4,0.5-0.8,1-1,1.4c-0.2,0.5-0.3,0.7-0.3,1.6c0,1,0,1.1,0.3,1.6c0.3,0.7,1,1.5,1.7,1.8
	c0.5,0.3,0.6,0.3,1.5,0.3c0.9,0,1,0,1.5-0.3c0.3-0.2,0.8-0.6,1.3-1.1l0.8-0.8l0.2,0.3l0.2,0.3l-0.5,0.6c-0.6,0.7-0.7,0.9-0.7,1.3
	c0.1,0.3,3.6,4.1,4,4.3c0.1,0.1,0.3,0.1,0.5,0.1c0.3-0.1,3.6-3.6,3.6-3.9c0-0.1,0-0.3-0.1-0.4c-0.2-0.4-3.8-4.2-4.1-4.3
	c-0.3-0.1-0.6,0.1-1.2,0.7l-0.5,0.5l-0.2-0.3l-0.3-0.3l1.6-1.7c1.5-1.6,1.6-1.8,1.6-2.1c0-0.3-0.1-0.4-0.4-0.7l-0.4-0.4l0.6-0.7
	c0.9-1,0.9-1-0.6-2.6s-1.5-1.6-2.4-0.6l-0.6,0.6l-0.4-0.4c-0.3-0.3-0.4-0.4-0.7-0.4c-0.3,0-0.5,0.1-1.9,1.7l-1.6,1.7l-0.2-0.3
	l-0.2-0.3l0.5-0.6c0.6-0.7,0.7-0.9,0.7-1.3c-0.1-0.3-3.6-4.1-4-4.3C41.3,12,41.2,12,41,12.1z M42.5,15.3l1.3,1.4l-1,1.1l-1,1.1
	l-1.3-1.4l-1.3-1.4l1-1.1c0.5-0.6,1-1.1,1-1.1C41.2,14,41.8,14.6,42.5,15.3z M51.7,18l-0.2,0.3L51,17.7l-0.5-0.6l0.2-0.3l0.2-0.3
	l0.5,0.6l0.5,0.6L51.7,18z M49,23.1c-2.6,2.8-2.9,3-3.7,3c-0.8,0-1.5-0.5-1.9-1.3c-0.3-0.5-0.3-1.4,0-1.9c0.1-0.2,1.3-1.5,2.6-3
	l2.5-2.6l1.5,1.6l1.5,1.6L49,23.1z M53.3,26.8l1.3,1.4l-1,1.1l-1,1.1L51.2,29l-1.3-1.4l1-1.1c0.5-0.6,1-1.1,1-1.1
	C52,25.4,52.6,26.1,53.3,26.8z"/>
<path class="st0" d="M41.3,27c-0.3,0.3-0.3,0.9,0,1.1c0.5,0.4,1.1,0.1,1.1-0.6C42.5,26.9,41.7,26.5,41.3,27z"/>
<path class="st0" d="M39.2,27.1c-0.5,0.4-0.2,1.7,0.5,2.6c0.6,0.7,1.8,1.1,2.3,0.8c0.7-0.4,0.4-1.3-0.4-1.4
	c-0.6-0.1-1.1-0.7-1.3-1.4c-0.1-0.4-0.4-0.7-0.7-0.7C39.5,26.9,39.3,27,39.2,27.1z"/>
<path class="st0" d="M37.1,27.1c-0.3,0.1-0.4,0.3-0.4,0.9c0,1.1,0.6,2.4,1.5,3.3c0.8,0.9,1.8,1.4,3.1,1.6c0.5,0.1,0.5,0,0.8-0.2
	c0.2-0.3,0.3-0.4,0.2-0.6c-0.1-0.4-0.2-0.6-1-0.7c-0.9-0.2-1.5-0.5-2.1-1.2c-0.5-0.6-0.9-1.3-1-2.1c0-0.3-0.1-0.6-0.2-0.7
	C37.9,27.1,37.5,27,37.1,27.1z"/>
<path class="st0" d="M24.4,29.2c-6.4,0.7-11.6,5.8-12.9,12.5c-0.3,1.6-0.3,4.2,0,5.7c1.2,6.3,5.6,11,11.5,12.3
	c1.4,0.3,3.9,0.3,5.2,0c1.6-0.3,3.2-0.9,4.3-1.6c4-2.4,6.6-6.2,7.5-11c0.2-1.3,0.2-4.1,0-5.5c-1.2-6.3-5.7-11.1-11.5-12.3
	C27.6,29.2,25.2,29.1,24.4,29.2z M25,33.4v2.7L24.3,36c-1.2-0.1-2.6-0.3-2.8-0.3c-0.1,0-0.1-0.2,0.3-1.1c0.8-1.8,1.7-3,2.7-3.6
	c0.3-0.2,0.5-0.3,0.5-0.3C25,30.8,25,32,25,33.4z M28,31.8c0.7,0.7,1.2,1.5,1.8,2.8c0.4,0.9,0.4,1,0.3,1.1c-0.2,0.1-1.6,0.2-2.8,0.3
	l-0.8,0.1v-2.7v-2.7L27,31C27.2,31.2,27.7,31.5,28,31.8z M31.2,31.9c1.1,0.5,2,1.2,3.1,2.1c0.3,0.3,0.3,0.3,0.2,0.4
	c-0.2,0.1-1.9,0.7-2.4,0.9l-0.4,0.1L31.5,35c-0.4-1.1-1.6-3.3-1.8-3.5c0,0-0.1-0.1-0.1-0.1C29.6,31.2,30.3,31.5,31.2,31.9z
	 M21.6,31.9c-0.4,0.6-1.2,2.2-1.5,3.1l-0.1,0.4l-0.8-0.2c-1-0.3-2.1-0.7-2.1-0.8c0.1-0.2,1.3-1.2,2-1.7c0.8-0.5,2.5-1.3,2.8-1.3
	C21.9,31.3,21.9,31.5,21.6,31.9z M16.8,36c0.5,0.2,1.3,0.5,1.8,0.6c0.9,0.3,0.9,0.3,0.8,0.5c-0.4,1.6-0.7,3.7-0.8,5.7l-0.1,0.9h-2.9
	h-2.9l0.1-0.5c0.3-2.3,0.9-4.4,2-6.2c0.4-0.7,1-1.5,1.1-1.5C15.8,35.6,16.3,35.8,16.8,36z M36,36c1.5,1.9,2.5,4.6,2.7,7.3l0,0.5
	h-2.9H33L33,42.9c-0.1-2-0.4-4.2-0.8-5.7c-0.1-0.2,0-0.3,1-0.6c0.6-0.2,1.4-0.5,1.8-0.6c0.4-0.2,0.8-0.3,0.8-0.3
	C35.7,35.6,35.9,35.8,36,36z M22.2,37.4c0.6,0.1,1.4,0.2,1.9,0.2l0.9,0.1v3.1v3.1h-2.5h-2.5l0.1-0.9c0.1-1.9,0.4-3.9,0.7-5.1
	C20.9,37.2,20.8,37.2,22.2,37.4z M30.7,37.5c0.3,0.9,0.7,3.5,0.8,5.3l0.1,0.9H29h-2.5v-3.1v-3.1l1-0.1c0.5,0,1.3-0.1,1.8-0.2
	C30.7,37.2,30.6,37.2,30.7,37.5z M18.6,46.3c0.1,2,0.4,4.2,0.8,5.7c0.1,0.2,0,0.3-0.8,0.5c-0.5,0.1-1.3,0.4-1.8,0.6
	c-1.1,0.5-1,0.5-1.8-0.9c-1.2-1.9-1.9-4-2.2-6.4l-0.1-0.5h2.9h2.9L18.6,46.3z M25,48.4v3.1l-1,0.1c-0.5,0-1.4,0.1-1.9,0.2
	c-1.3,0.2-1.3,0.2-1.4-0.4c-0.3-1.2-0.6-3.2-0.7-5.1l-0.1-0.9h2.5H25V48.4z M31.5,46.3c-0.2,2.6-0.7,5.6-1,5.6
	c-0.1,0-0.6-0.1-1.1-0.1c-0.6-0.1-1.5-0.2-2-0.2l-0.9-0.1v-3.1v-3.1H29h2.5L31.5,46.3z M38.8,45.9c-0.2,2.3-1,4.6-2.2,6.5
	c-0.8,1.3-0.7,1.3-1.8,0.8c-0.5-0.2-1.3-0.5-1.8-0.6c-0.9-0.3-0.9-0.3-0.8-0.5c0.4-1.6,0.7-3.7,0.8-5.7l0.1-0.9h2.9h2.9L38.8,45.9z
	 M25,55.7v2.7l-0.5-0.3c-1-0.6-2-1.8-2.8-3.6c-0.5-1.2-0.6-1.1,0.9-1.2c0.6-0.1,1.1-0.1,1.3-0.1c0.2,0,0.5,0,0.7,0l0.4,0V55.7z
	 M29,53.3c1.4,0.2,1.3,0.1,0.8,1.2c-0.8,1.8-1.8,3.1-2.8,3.6l-0.5,0.3v-2.7v-2.7l0.8,0.1C27.7,53.2,28.5,53.2,29,53.3z M20.1,54.3
	c0.4,1,1,2.4,1.6,3.1c0.2,0.3,0.2,0.4,0.1,0.4c-0.3,0-1.9-0.8-2.8-1.3c-0.7-0.5-2-1.5-2-1.7c0-0.1,2.7-1.1,2.9-1
	C19.9,53.8,20,54.1,20.1,54.3z M33.4,54.3c1.2,0.4,1.3,0.5,1,0.7c-0.7,0.6-1.6,1.3-2.2,1.7c-0.7,0.4-2.5,1.2-2.6,1.2
	c0,0,0.1-0.2,0.2-0.4c0.6-0.8,1.2-2,1.7-3.4c0.1-0.2,0.1-0.3,0.5-0.2C32.2,53.9,32.8,54.1,33.4,54.3z"/>
</svg>
